<mxfile host="drawio-plugin" agent="5.0 (Macintosh; Intel Mac OS X 10_15_7) AppleWebKit/537.36 (KHTML, like Gecko) Chrome/111.0.0.0 Safari/537.36" modified="2024-09-28T16:44:43.951Z" version="20.5.3" etag="PI1Z3ubd_jBOngzNRZev" type="embed"><diagram name="Page-1" id="8XrEV-wTHmdZVA_e9Tc5"><mxGraphModel grid="1" gridSize="10" guides="1" tooltips="1" connect="1" arrows="1" fold="1" page="1" pageScale="1" pageWidth="919" pageHeight="480" background="#FFFFFF" math="0" shadow="0"><root><mxCell id="0"/><mxCell id="1" parent="0"/><mxCell id="hypr84o-NwwyEwqK8PG3-2" value="" style="rounded=0;whiteSpace=wrap;html=1;" parent="1" vertex="1"><mxGeometry x="40" y="120" width="160" height="240" as="geometry"/></mxCell><mxCell id="hypr84o-NwwyEwqK8PG3-3" value="localhost:13000" style="rounded=0;whiteSpace=wrap;html=1;" parent="1" vertex="1"><mxGeometry x="80" y="160" width="120" height="40" as="geometry"/></mxCell><mxCell id="hypr84o-NwwyEwqK8PG3-4" value="localhost:18080" style="rounded=0;whiteSpace=wrap;html=1;" parent="1" vertex="1"><mxGeometry x="80" y="280" width="120" height="40" as="geometry"/></mxCell><mxCell id="hypr84o-NwwyEwqK8PG3-5" value="" style="rounded=0;whiteSpace=wrap;html=1;" parent="1" vertex="1"><mxGeometry x="320" y="60" width="560" height="360" as="geometry"/></mxCell><mxCell id="hypr84o-NwwyEwqK8PG3-6" value="UI" style="shape=process;whiteSpace=wrap;html=1;backgroundOutline=1;" parent="1" vertex="1"><mxGeometry x="520" y="120" width="120" height="60" as="geometry"/></mxCell><mxCell id="hypr84o-NwwyEwqK8PG3-7" value="API" style="shape=process;whiteSpace=wrap;html=1;backgroundOutline=1;" parent="1" vertex="1"><mxGeometry x="520" y="300" width="120" height="60" as="geometry"/></mxCell><mxCell id="hypr84o-NwwyEwqK8PG3-8" value="bookmarker-ui-nextjs:3000" style="rounded=0;whiteSpace=wrap;html=1;" parent="1" vertex="1"><mxGeometry x="480" y="90" width="200" height="20" as="geometry"/></mxCell><mxCell id="hypr84o-NwwyEwqK8PG3-9" value="bookmarker-api:8080" style="rounded=0;whiteSpace=wrap;html=1;" parent="1" vertex="1"><mxGeometry x="490" y="370" width="200" height="20" as="geometry"/></mxCell><mxCell id="hypr84o-NwwyEwqK8PG3-10" value="Postgres" style="shape=cylinder3;whiteSpace=wrap;html=1;boundedLbl=1;backgroundOutline=1;size=15;" parent="1" vertex="1"><mxGeometry x="720" y="220" width="80" height="80" as="geometry"/></mxCell><mxCell id="hypr84o-NwwyEwqK8PG3-11" value="bookmarker-db:5432" style="rounded=0;whiteSpace=wrap;html=1;" parent="1" vertex="1"><mxGeometry x="680" y="190" width="160" height="20" as="geometry"/></mxCell><mxCell id="hypr84o-NwwyEwqK8PG3-12" value="" style="endArrow=classic;html=1;rounded=0;exitX=1;exitY=0.5;exitDx=0;exitDy=0;entryX=0;entryY=0.5;entryDx=0;entryDy=0;entryPerimeter=0;edgeStyle=orthogonalEdgeStyle;" parent="1" source="hypr84o-NwwyEwqK8PG3-7" target="hypr84o-NwwyEwqK8PG3-10" edge="1"><mxGeometry width="50" height="50" relative="1" as="geometry"><mxPoint x="540" y="310" as="sourcePoint"/><mxPoint x="590" y="260" as="targetPoint"/></mxGeometry></mxCell><mxCell id="hypr84o-NwwyEwqK8PG3-13" value="" style="endArrow=classic;html=1;rounded=0;exitX=0.5;exitY=1;exitDx=0;exitDy=0;entryX=0.5;entryY=0;entryDx=0;entryDy=0;" parent="1" source="hypr84o-NwwyEwqK8PG3-6" target="hypr84o-NwwyEwqK8PG3-7" edge="1"><mxGeometry width="50" height="50" relative="1" as="geometry"><mxPoint x="540" y="310" as="sourcePoint"/><mxPoint x="590" y="260" as="targetPoint"/></mxGeometry></mxCell><mxCell id="hypr84o-NwwyEwqK8PG3-14" value="" style="endArrow=classic;html=1;rounded=0;exitX=1;exitY=0.5;exitDx=0;exitDy=0;entryX=0;entryY=0.5;entryDx=0;entryDy=0;edgeStyle=orthogonalEdgeStyle;" parent="1" source="hypr84o-NwwyEwqK8PG3-3" target="hypr84o-NwwyEwqK8PG3-6" edge="1"><mxGeometry width="50" height="50" relative="1" as="geometry"><mxPoint x="540" y="310" as="sourcePoint"/><mxPoint x="590" y="260" as="targetPoint"/></mxGeometry></mxCell><mxCell id="hypr84o-NwwyEwqK8PG3-15" value="" style="endArrow=classic;html=1;rounded=0;exitX=1;exitY=0.5;exitDx=0;exitDy=0;entryX=0;entryY=0.5;entryDx=0;entryDy=0;edgeStyle=orthogonalEdgeStyle;" parent="1" source="hypr84o-NwwyEwqK8PG3-4" target="hypr84o-NwwyEwqK8PG3-7" edge="1"><mxGeometry width="50" height="50" relative="1" as="geometry"><mxPoint x="210" y="190" as="sourcePoint"/><mxPoint x="530" y="160" as="targetPoint"/></mxGeometry></mxCell><mxCell id="hypr84o-NwwyEwqK8PG3-16" value="Host" style="text;html=1;align=center;verticalAlign=middle;resizable=0;points=[];autosize=1;strokeColor=none;fillColor=none;" parent="1" vertex="1"><mxGeometry x="95" y="365" width="50" height="30" as="geometry"/></mxCell><mxCell id="hypr84o-NwwyEwqK8PG3-17" value="Docker" style="text;html=1;align=center;verticalAlign=middle;resizable=0;points=[];autosize=1;strokeColor=none;fillColor=none;" parent="1" vertex="1"><mxGeometry x="550" y="420" width="60" height="30" as="geometry"/></mxCell></root></mxGraphModel></diagram></mxfile>